# xmcd
#
# Track frame offsets:
#	150
#	29001
#	55593
#	81420
#	101501
#	124490
#	148268
#	191881
#	208890
#	226830
#	259534
#	292720
#	322086
#
# Disc length: 4555
#
# Revision: 1
# Processed by: cddbd v1.5.1PL0 Copyright (c) Steve Scherf et al.
# Submitted via: dBpowerAMP V4.0
# Normalized: r0:TDELIM( - )
#
DISCID=c611c90d
DTITLE=HippyMuzikGroup - HighTimeMuziQ
DYEAR=2005
DGENRE=Blues
TTITLE0=St, James Infirmary - Baba Blues
TTITLE1=Walkin Out The Door - Detroit Blues Band
TTITLE2=I Want To Ta Ta You Baby - Johnny Guitar Watson
TTITLE3=The Kennedy Song - Might Mo Rodgers
TTITLE4=Give Me One Reason - Junior Wells
TTITLE5=Help Me Through The Day - Peter Green
TTITLE6=When The Lights Go Out - Willie Lomax Blues Revue
TTITLE7=A Fool No More - Kim Lembo and Mark Doyle
TTITLE8=Who's Been Talking - Working Blues Band
TTITLE9=Ain't Nobody's Business - Fred and The Heslers
TTITLE10=Blue Deluxe - Joe Bonamassa
TTITLE11=As The Years Go Passing By - VicVergeat Band and Friends
TTITLE12=Brave Angels - Tommy Shim
EXTD=KoreanHippy
EXTT0=
EXTT1=
EXTT2=
EXTT3=
EXTT4=
EXTT5=
EXTT6=
EXTT7=
EXTT8=
EXTT9=
EXTT10=
EXTT11=
EXTT12=
PLAYORDER=
